<?xml version="1.0" standalone="no"?>
<!DOCTYPE svg PUBLIC "-//W3C//DTD SVG 20010904//EN"
 "http://www.w3.org/TR/2001/REC-SVG-20010904/DTD/svg10.dtd">
<svg version="1.0" xmlns="http://www.w3.org/2000/svg"
 width="1280.000000pt" height="1280.000000pt" viewBox="0 0 1280.000000 1280.000000"
 preserveAspectRatio="xMidYMid meet">
<metadata>
Created by potrace 1.15, written by Peter Selinger 2001-2017
</metadata>
<g transform="translate(0.000000,1280.000000) scale(0.100000,-0.100000)"
fill="#f44336" stroke="none">
<path d="M2479 12009 c-87 -13 -312 -66 -397 -95 -284 -94 -596 -324 -786
-578 -177 -236 -246 -384 -311 -666 -19 -80 -39 -189 -44 -242 -15 -133 -15
-7896 -1 -8022 24 -209 99 -472 179 -630 105 -206 294 -437 466 -571 230 -179
389 -258 654 -325 258 -65 -91 -60 4296 -60 4372 0 4031 -5 4290 59 230 57
372 121 569 259 234 164 428 390 556 647 92 185 158 422 180 647 7 69 10 1412
7 4058 -3 3717 -4 3960 -20 4040 -73 350 -141 521 -304 752 -104 149 -224 273
-364 377 -217 163 -371 237 -609 297 -279 69 80 64 -4320 63 -2192 -1 -4010
-5 -4041 -10z m7354 -1429 c260 -30 537 -213 677 -448 57 -97 107 -225 120
-307 7 -49 10 -1075 8 -3425 l-3 -3355 -29 -75 c-102 -269 -258 -450 -481
-560 -123 -60 -177 -78 -274 -91 -50 -6 -1237 -9 -3401 -7 l-3325 3 -104 37
c-304 109 -510 316 -618 623 l-28 80 0 3390 0 3390 23 70 c57 169 135 295 254
411 91 89 164 140 272 189 101 45 166 65 244 75 103 12 6560 12 6665 0z"/>
<path d="M5675 9896 c-26 -11 -37 -32 -105 -202 l-76 -189 -987 -5 c-970 -5
-987 -5 -1006 -25 -18 -19 -46 -212 -137 -945 -5 -36 -2 -50 16 -73 l21 -27
3136 2 3136 3 20 27 20 27 -63 483 c-53 407 -65 486 -82 503 -18 20 -35 20
-1005 25 l-987 5 -53 130 c-106 261 -102 253 -135 264 -48 17 -1673 14 -1713
-3z"/>
<path d="M3779 8209 c-25 -25 -26 11 11 -609 11 -184 31 -528 45 -765 26 -456
158 -2721 200 -3435 l25 -425 25 -22 26 -23 2424 0 2424 0 25 23 c24 20 26 31
36 162 9 127 49 689 115 1650 24 344 49 701 115 1635 38 544 109 1566 117
1691 5 89 4 98 -16 118 l-21 21 -649 0 -650 0 -20 -26 -21 -27 0 -2199 0
-2199 -147 3 -148 3 -3 2204 c-2 2034 -3 2206 -19 2223 -15 17 -44 18 -483 18
-462 0 -467 0 -486 -21 -19 -21 -19 -74 -22 -2225 l-2 -2204 -145 0 -145 0 -2
1948 c-2 1071 -3 2062 -3 2203 0 239 -1 258 -19 278 -19 21 -23 21 -516 21
-492 0 -497 0 -516 -21 -19 -21 -19 -74 -22 -2225 l-2 -2204 -145 0 -145 0 -2
2204 c-3 2151 -3 2204 -22 2225 -19 21 -22 21 -608 21 l-588 0 -21 -21z"/>
</g>
</svg>
